<svg width="18" height="18" viewBox="0 0 18 18" fill="none" xmlns="http://www.w3.org/2000/svg">
<path d="M8.67858 3.43527C9.95867 3.43527 11.105 3.87643 12.009 4.73705L14.486 2.26004C12.9817 0.860625 11.0182 0 8.67858 0C5.2867 0 2.35407 1.94545 0.92572 4.78045L3.81134 7.0188C4.49478 4.96125 6.41492 3.43527 8.67858 3.43527Z" fill="#EA4335"/>
<path d="M16.9883 8.87743C16.9883 8.30971 16.9341 7.76006 16.8509 7.23212H8.67859V10.4938H13.3578C13.1481 11.5642 12.5406 12.4754 11.6293 13.0902L14.4245 15.2598C16.0554 13.7483 16.9883 11.5135 16.9883 8.87743V8.87743Z" fill="#4285F4"/>
<path d="M3.80772 10.3384C3.63415 9.81403 3.5329 9.25715 3.5329 8.67858C3.5329 8.10001 3.63053 7.54314 3.80772 7.01881L0.922097 4.78046C0.332678 5.95206 0 7.27555 0 8.67858C0 10.0816 0.332678 11.4051 0.925714 12.5767L3.80772 10.3384Z" fill="#FBBC05"/>
<path d="M8.67854 17.3571C11.0218 17.3571 12.9925 16.5869 14.4245 15.2562L11.6293 13.0865C10.8518 13.6109 9.85014 13.9182 8.67854 13.9182C6.41487 13.9182 4.49474 12.3923 3.80768 10.3347L0.922058 12.5731C2.35402 15.4117 5.28666 17.3571 8.67854 17.3571Z" fill="#34A853"/>
</svg>
